<?xml version="1.0" encoding="utf-8"?>
<!-- Designed by Vexels.com - 2018 All Rights Reserved - https://vexels.com/terms-and-conditions/  -->
<svg version="1.1" id="Layer_1" xmlns="http://www.w3.org/2000/svg" xmlns:xlink="http://www.w3.org/1999/xlink" x="0px" y="0px"
	 viewBox="0 0 1200 1200" enable-background="new 0 0 1200 1200" xml:space="preserve">
<g id="XMLID_1752_">
	<g id="XMLID_1766_">
		<g id="XMLID_1767_">
			<g id="XMLID_326_">
				<path id="XMLID_327_" fill="#39414C" d="M1051.568,525.788l98.194-54.222c-3.855-18.249-8.712-36.354-14.537-54.334
					l-112.14,1.614c-7.44-18.212-16.009-36.155-26.101-53.667c-10.092-17.532-21.293-34.024-33.232-49.619l57.861-96.062
					c-12.581-14.088-25.81-27.372-39.613-39.883l-96.312,57.433c-31.745-24.667-66.467-44.599-103.106-59.692l2.079-112.086
					c-17.853-5.808-36.013-10.666-54.313-14.647l-54.655,97.909c-39.273-5.522-79.301-5.736-119.167-0.377L502.246,50
					C484,53.817,465.912,58.712,447.97,64.482l1.613,112.194c-18.231,7.439-36.12,16.043-53.686,26.099
					c-17.513,10.074-34.022,21.242-49.582,33.27l-96.133-57.917c-14.071,12.585-27.372,25.814-39.884,39.633l57.486,96.295
					c-24.665,31.728-44.615,66.485-59.672,103.14l-112.105-2.148c-5.827,17.888-10.719,36.012-14.663,54.367l97.872,54.672
					c-5.468,39.239-5.683,79.302-0.359,119.13l-98.16,54.277c3.856,18.248,8.693,36.318,14.502,54.332l112.213-1.631
					c4.588,11.257,9.803,22.333,15.344,33.358l96.204-96.223c-48.614-139.657,7.027-298.491,139.924-374.851
					c150.232-86.33,341.996-34.526,428.378,115.742c86.327,150.195,34.541,341.996-115.725,428.343
					c-80.789,46.427-173.497,52.574-255.471,25.274l-96.796,96.779c9.393,4.659,18.912,9.015,28.61,13.013l-2.063,112.086
					c17.836,5.844,35.994,10.754,54.315,14.681l54.653-97.871c39.22,5.45,79.337,5.7,119.149,0.358l54.279,98.16
					c18.212-3.853,36.316-8.694,54.295-14.518l-1.594-112.159c18.193-7.456,36.155-16.043,53.687-26.101
					c17.512-10.073,33.983-21.278,49.544-33.25l96.132,57.88c14.072-12.602,27.372-25.83,39.866-39.633l-57.487-96.276
					c24.702-31.728,44.652-66.467,59.675-103.141l112.122,2.114c5.825-17.853,10.719-36.031,14.662-54.367l-97.889-54.619
					C1056.694,605.716,1056.942,565.653,1051.568,525.788z"/>
			</g>
		</g>
	</g>
	<g id="XMLID_1753_">
		<g id="XMLID_1757_">
			<g id="XMLID_328_">
				<path id="XMLID_329_" fill="#39414C" d="M761.966,722.268c62.739-62.72,75.125-156.685,37.482-231.935l-117.77,117.787
					c-14.214,14.234-37.409,14.234-51.658,0l-37.896-37.93c-14.232-14.18-14.232-37.446,0-51.625l117.75-117.749
					c-75.25-37.644-169.178-25.295-231.898,37.464c-54.708,54.689-71.127,133.039-49.564,202.034L55.551,1013.176
					c-7.082,7.078-7.082,18.679,0,25.794l105.705,105.723c7.099,7.082,18.732,7.082,25.811-0.035l372.826-372.826
					C628.926,793.412,707.276,776.974,761.966,722.268z M174.575,1061.18c-9.806,9.769-25.67,9.769-35.458,0
					c-9.84-9.841-9.84-25.706,0-35.528c9.752-9.805,25.652-9.805,35.458,0C184.377,1035.474,184.377,1051.339,174.575,1061.18z
					 M436.121,660.801c0.628,1.399,1.308,2.813,1.99,4.249C437.43,663.614,436.75,662.2,436.121,660.801z M446.071,680.375
					c1.146,1.937,2.221,3.855,3.404,5.755C448.292,684.23,447.199,682.312,446.071,680.375z M458.652,699.483
					c1.381,1.865,2.652,3.765,4.088,5.594C461.304,703.249,460.034,701.348,458.652,699.483z M535.283,762.169
					c1.362,0.645,2.743,1.291,4.141,1.918C538.026,763.477,536.646,762.814,535.283,762.169z M495.202,737.502
					c1.757,1.436,3.641,2.671,5.469,4.017C498.842,740.173,496.958,738.938,495.202,737.502z M514.185,750.786
					c1.847,1.182,3.727,2.239,5.611,3.316C517.898,753.025,516.05,751.969,514.185,750.786z"/>
			</g>
		</g>
	</g>
</g>
</svg>
